
<svg xmlns="http://www.w3.org/2000/svg" width="120" height="120" viewBox="0 0 128 128" fill="none">
        <path d="M12.1752 67.8124C59.3892 71.9228 140.991 68.7273 89.6845 23.0624C38.3783 -22.6024 76.2392 49.1078 101.583 90.6711" stroke="black" stroke-width="4"/>
        <path d="M103.498 95.817C104.565 96.1029 105.662 95.4697 105.948 94.4028L110.606 77.0161C110.892 75.9492 110.259 74.8525 109.192 74.5666C108.125 74.2807 107.029 74.9139 106.743 75.9808L102.602 91.4356L87.1468 87.2945C86.0799 87.0086 84.9832 87.6418 84.6974 88.7087C84.4115 89.7757 85.0446 90.8723 86.1116 91.1582L103.498 95.817ZM100.284 91.421L102.284 94.8851L105.748 92.8851L103.748 89.421L100.284 91.421Z" fill="black"/>
</svg>