	<svg xmlns="http://www.w3.org/2000/svg" width="886" height="88" viewBox="0 0 886 88" fill="none">
			<path d="M824 27.0871C827.167 39.0871 833.4 63.1871 833 63.5871C832.5 64.0871 842 61.0871 851.5 70.5871M824 27.0871C829.833 28.5871 845.4 32.5871 861 36.5871C858.928 46.2573 863.416 52.6475 866.933 55.5M824 27.0871C732.667 71.0871 520.335 127.926 379 36.5871C305.5 -10.9129 54.5 -4.41292 1 25.5871M851.5 70.5871C858.3 81.3871 860.667 85.0871 861 85.5871L883 63.5871L868.5 56.5871C868.022 56.3139 867.49 55.9512 866.933 55.5M851.5 70.5871L866.933 55.5M844.5 42.5C842.5 42.5 838.5 43.6 838.5 48C838.5 52.4 842 54 844.5 54C847 54 850.5 52 850.5 48C850.5 44 846.5 42.5 844.5 42.5Z" stroke="black" stroke-width="3"/>
		</svg>